# xmcd
#
# Track frame offsets:
#	150
#	10477
#	22274
#	32694
#	44971
#	59708
#	68048
#	79073
#	89648
#	99570
#	108900
#	121065
#
# Disc length: 1764 seconds
#
# Revision: 0
# Processed by: cddbd v1.5.2PL0 Copyright (c) Steve Scherf et al.
# Submitted via: EasyCDDAExtractor 16.0.6.1
#
DISCID=a806e20c
DTITLE=Αναστασίου Αντώνης - Χαλάλι σου-LP 1981, Αντ. Αναστασίου
DYEAR=2008
DGENRE=Λαϊκή
TTITLE0=Καλά να πάθω [Βασ. Παπαδόπουλος]
TTITLE1=Εμείς οι δυό [Βασ. Παπαδόπουλος]
TTITLE2=Ζητιάνος [Βασ. Παπαδόπουλος]
TTITLE3=Όταν σε πρωτογνώρισα [Βασ. Παπαδόπουλος]
TTITLE4=Τώρα που γύρισες [Βασ. Παπαδόπουλος]
TTITLE5=Παντρεμένη μού τη βγήκε [Βασ. Παπαδόπουλος]
TTITLE6=Άκου μάννα την καμπάνα [Βασ. Παπαδόπουλος]
TTITLE7=Αγαπώ μιά κουκλίτσα [Βασ. Παπαδόπουλος]
TTITLE8=Ένα θλιμένο δειλινό [Βασ. Παπαδόπουλος]
TTITLE9=Καρδιά μου ματωμένη [Βασ. Παπαδόπουλος]
TTITLE10=Είναι πικρός ο χωρισμός [Βασ. Παπαδόπουλος]
TTITLE11=Χαλάλι σου [Βασ. Παπαδόπουλος]
EXTD=
EXTT0=
EXTT1=
EXTT2=
EXTT3=
EXTT4=
EXTT5=
EXTT6=
EXTT7=
EXTT8=
EXTT9=
EXTT10=
EXTT11=
PLAYORDER=
